<svg xmlns="http://www.w3.org/2000/svg" xmlns:xlink="http://www.w3.org/1999/xlink" width="1920" height="1251" viewBox="0 0 1920 1251">
  <defs>
    <clipPath id="clip-path">
      <rect id="Rectangle_211" data-name="Rectangle 211" width="1920" height="1251" transform="translate(3540.86 -2532)" fill="none" stroke="blue" stroke-width="10"/>
    </clipPath>
    <linearGradient id="linear-gradient" x1="0.5" x2="0.519" y2="0.513" gradientUnits="objectBoundingBox">
      <stop offset="0" stop-color="#e8535b"/>
      <stop offset="1" stop-color="#bf245b"/>
    </linearGradient>
  </defs>
  <g id="Mask_Group_1" data-name="Mask Group 1" transform="translate(-3540.86 2532)" clip-path="url(#clip-path)">
    <path id="Path_972" data-name="Path 972" d="M829,0c457.844,0,829,371.432,829,829s-371.156,828-829,828S0,1286.568,0,829,371.156,0,829,0Z" transform="translate(3671.86 -2365)" fill="url(#linear-gradient)"/>
    <rect id="Rectangle_213" data-name="Rectangle 213" width="926.705" height="926.705" transform="translate(5156.14 -2222.478) rotate(45)" fill="#ac2670"/>
    <rect id="Rectangle_212" data-name="Rectangle 212" width="926.705" height="926.705" transform="translate(3778.86 -2268.28) rotate(45)" fill="#ca0733"/>
    <path id="Path_973" data-name="Path 973" d="M2316.634,5420.838a81.643,81.643,0,0,1-82,82h-247a85,85,0,0,1-40-160c4.463-56.625,51.223-102,109-102a112.278,112.278,0,0,1,79,33,63.769,63.769,0,0,1,36-11c36.653,0,67,29.347,67,66a66.165,66.165,0,0,1-1,9C2281.748,5339.484,2316.634,5376.319,2316.634,5420.838Z" transform="translate(2821.227 -7439.838)" fill="#fff" opacity="0.3"/>
    <path id="Path_970" data-name="Path 970" d="M1901.936,5420.436c0,45.568,37.432,83,83,83h247c47.144,0,85-38.866,85-86a84.734,84.734,0,0,0-45-75c-4.463-56.625-52.223-101-110-101-30.514,0-58.088,11.927-78,32a63.769,63.769,0,0,0-36-11c-36.653,0-67,30.347-67,67a66.165,66.165,0,0,0,1,9C1937.821,5340.082,1901.936,5375.917,1901.936,5420.436Z" transform="translate(2015.925 -7309.436)" fill="#fff" opacity="0.3"/>
    <path id="Path_971" data-name="Path 971" d="M1902.215,5420.736c0,45.568,37.432,82,83,82h246c47.144,0,86-37.866,86-85a84.734,84.734,0,0,0-45-75c-4.463-56.625-52.223-101-110-101-30.514,0-58.088,11.927-78,32a67.037,67.037,0,0,0-37-11,63.549,63.549,0,0,0-65,75C1938.1,5339.382,1902.215,5376.217,1902.215,5420.736Z" transform="translate(1528.646 -6921.736)" fill="#fff" opacity="0.3"/>
  </g>
</svg>